<?xml version="1.0" standalone="no"?>
<!DOCTYPE svg PUBLIC "-//W3C//DTD SVG 20010904//EN"
 "http://www.w3.org/TR/2001/REC-SVG-20010904/DTD/svg10.dtd">
<svg version="1.0" xmlns="http://www.w3.org/2000/svg"
 width="2048.000000pt" height="2048.000000pt" viewBox="0 0 2048.000000 2048.000000"
 preserveAspectRatio="xMidYMid meet">

<g transform="translate(0.000000,2048.000000) scale(0.100000,-0.100000)"
fill="***REMOVED***000000" stroke="none">
<path d="M9842 20469 c-1131 -44 -2190 -260 -3254 -665 -759 -289 -1382 -613
-2073 -1078 -835 -561 -1602 -1266 -2246 -2061 -1295 -1598 -2069 -3548 -2234
-5625 -74 -936 -19 -1877 166 -2809 50 -253 129 -583 195 -821 48 -172 193
-612 266 -805 390 -1033 998 -2068 1730 -2945 1202 -1439 2843 -2552 4628
-3138 754 -248 1510 -404 2300 -476 589 -54 1272 -54 1860 0 1700 155 3315
727 4748 1683 967 646 1801 1433 2491 2351 275 367 524 745 738 1120 100 176
439 857 430 866 -1 2 -18 6 -37 9 -43 7 -51 20 -38 56 11 33 23 40 13 8 -5
-16 -4 -19 5 -14 9 6 11 4 5 -5 -6 -10 -4 -12 9 -7 9 4 14 3 11 -2 -3 -5 0
-13 6 -16 12 -8 51 30 41 40 -4 4 -1 5 6 3 15 -4 71 117 144 306 70 185 81
216 75 222 -2 2 -18 6 -36 7 -17 1 -31 6 -31 10 0 5 -4 6 -9 3 -5 -4 -7 4 -5
16 3 13 -6 1 -20 -27 -13 -27 -25 -47 -25 -44 -2 13 47 121 51 113 3 -5 3 -3
1 5 -2 8 12 55 32 105 l35 91 49 -3 c60 -5 59 -6 130 202 107 312 213 736 310
1236 69 357 122 786 153 1250 16 239 16 941 0 1185 -77 1174 -310 2224 -724
3255 -966 2405 -2835 4367 -5210 5471 -416 193 -992 407 -1450 539 -1055 302
-2134 432 -3236 389z m768 -339 c1423 -55 2770 -401 4020 -1031 1566 -789
2871 -1943 3825 -3384 884 -1334 1410 -2770 1594 -4350 49 -419 56 -553 56
-1145 0 -661 -12 -854 -90 -1396 -98 -687 -293 -1446 -525 -2049 -24 -60 -62
-159 -85 -220 -113 -294 -342 -775 -532 -1115 -971 -1736 -2424 -3125 -4201
-4014 -1125 -563 -2308 -900 -3547 -1010 -602 -54 -1339 -46 -1955 20 -2192
234 -4283 1225 -5854 2774 -753 742 -1327 1513 -1814 2435 -200 379 -346 705
-502 1121 -366 973 -564 1920 -621 2963 -13 244 -7 989 10 1201 56 682 161
1299 321 1890 403 1482 1147 2855 2175 4010 168 190 541 567 724 732 1050 951
2274 1663 3606 2097 1081 353 2251 515 3395 471z m9081 -13537 c-12 -20 -14
-14 -5 12 4 9 9 14 11 11 3 -2 0 -13 -6 -23z"/>
<path d="M13505 16104 c-159 -35 -313 -120 -435 -243 -135 -135 -221 -290
-260 -469 -19 -84 -20 -144 -20 -1699 0 -887 3 -1613 6 -1613 9 0 304 183 519
323 884 574 1622 1183 2250 1857 301 323 510 569 713 841 115 153 115 155 87
289 -69 328 -302 588 -625 696 l-85 29 -1040 2 c-894 1 -1050 0 -1110 -13z"/>
<path d="M16345 14442 c-184 -231 -670 -745 -989 -1044 -684 -642 -1497 -1242
-2401 -1770 l-160 -94 -5 -2359 -5 -2359 -372 -1 -373 0 0 2153 c0 1185 -4
2152 -9 2152 -4 0 -138 -61 -297 -136 -975 -459 -2053 -855 -3141 -1155 l-153
-42 0 -1487 0 -1487 -362 3 c-200 2 -369 3 -375 3 -10 1 -13 286 -13 1391 0
765 -3 1390 -7 1390 -4 0 -135 -27 -292 -59 -1061 -222 -2235 -378 -3036 -406
-93 -3 -189 -8 -212 -11 l-43 -5 0 -1969 c0 -2149 -3 -2029 58 -2196 92 -253
292 -454 538 -543 167 -60 -257 -56 5549 -56 5107 0 5334 1 5415 18 178 38
316 114 450 247 101 101 153 179 207 310 69 166 64 -262 61 4892 l-3 4658 -30
-38z m-1110 -8639 c52 -28 100 -78 119 -125 20 -48 20 -128 1 -176 -25 -58
-92 -120 -149 -137 -43 -13 -674 -15 -4966 -15 -4299 0 -4923 2 -4966 15 -91
27 -164 126 -164 224 0 58 18 105 56 149 42 50 80 71 143 82 25 4 2260 7 4966
6 l4920 -1 40 -22z"/>
<path d="M9175 13675 c-175 -38 -332 -128 -470 -269 -149 -152 -235 -336 -255
-548 -12 -124 -13 -2578 -2 -2578 16 0 535 151 712 207 96 30 195 61 220 69
87 26 588 203 790 279 554 207 1186 483 1698 739 l169 85 1 525 c1 627 -4 734
-47 866 -49 153 -109 248 -231 370 -121 121 -204 173 -363 229 l-102 36 -1030
2 c-823 1 -1042 -1 -1090 -12z"/>
<path d="M4885 11256 c-315 -50 -599 -278 -718 -577 -62 -154 -61 -146 -65
-637 l-3 -453 43 5 c24 3 113 8 198 11 194 8 438 27 830 65 592 59 1130 137
1745 255 225 43 663 136 738 156 l37 10 0 175 c0 255 -33 387 -139 559 -127
207 -327 355 -561 417 l-85 22 -970 2 c-743 2 -989 -1 -1050 -10z"/>
</g>
</svg>
