<?xml version="1.0" standalone="no"?>
<!DOCTYPE svg PUBLIC "-//W3C//DTD SVG 20010904//EN"
 "http://www.w3.org/TR/2001/REC-SVG-20010904/DTD/svg10.dtd">
<svg version="1.0" xmlns="http://www.w3.org/2000/svg"
 width="1024.000000pt" height="1024.000000pt" viewBox="0 0 1024.000000 1024.000000"
 preserveAspectRatio="xMidYMid meet">

<g transform="translate(0.000000,1024.000000) scale(0.100000,-0.100000)"
fill="***REMOVED***000000" stroke="none">
<path d="M4840 10234 c-19 -2 -91 -9 -160 -14 -966 -82 -1864 -428 -2649
-1020 -1080 -815 -1804 -2060 -1985 -3415 -30 -224 -41 -407 -40 -695 0 -377
29 -665 99 -1016 345 -1713 1606 -3172 3256 -3768 593 -214 1241 -318 1874
-303 357 9 580 34 922 103 822 166 1610 543 2248 1076 783 654 1362 1533 1635
2481 84 293 140 574 178 902 24 215 24 864 -1 1083 -95 833 -354 1568 -790
2247 -320 499 -755 964 -1240 1327 -542 405 -1163 702 -1807 863 -415 104
-742 145 -1195 150 -170 2 -326 1 -345 -1z m600 -474 c809 -60 1551 -310 2220
-747 861 -563 1518 -1400 1850 -2359 120 -346 192 -676 242 -1099 20 -172 17
-763 -5 -945 -88 -726 -306 -1362 -665 -1943 -63 -102 -67 -106 -74 -80 -4 15
-24 102 -44 193 -69 312 -131 487 -219 620 -52 79 -134 164 -199 209 -52 36
-590 344 -786 451 -206 111 -626 320 -646 320 -2 0 5 -15 16 -32 63 -109 83
-211 115 -588 27 -322 31 -443 14 -487 -16 -44 -58 -81 -113 -100 -78 -27
-470 -25 -654 5 -74 11 -136 23 -138 25 -2 2 94 2 213 -1 241 -5 421 7 504 35
47 16 57 23 76 63 73 147 45 457 -72 807 -103 309 -201 519 -291 623 -87 100
-227 243 -306 311 -79 68 -213 159 -234 159 -22 0 -29 -47 -28 -180 1 -99 6
-147 27 -233 15 -60 27 -135 27 -167 0 -216 -164 -637 -370 -948 -113 -171
-223 -305 -385 -472 -77 -80 -188 -199 -245 -265 -58 -66 -140 -158 -183 -205
-55 -59 -90 -109 -117 -165 -81 -166 -127 -399 -139 -690 l-7 -180 -19 100
c-28 140 -28 473 -1 625 36 204 84 317 167 395 27 25 49 48 49 50 0 15 -186
233 -295 345 -234 241 -390 457 -531 735 -130 258 -193 452 -210 645 -5 64 -2
92 21 180 30 115 41 242 31 341 -10 94 -15 98 -73 64 -199 -114 -503 -421
-596 -602 -127 -247 -254 -604 -288 -810 -29 -179 -24 -363 13 -444 45 -99
113 -114 525 -114 160 0 290 -1 289 -2 -1 -2 -63 -12 -137 -23 -169 -27 -494
-38 -594 -21 -80 14 -138 43 -169 84 -33 44 -33 208 -1 544 34 358 54 456 115
561 11 17 16 32 11 32 -20 0 -607 -300 -826 -423 -227 -127 -486 -276 -578
-334 -23 -14 -76 -60 -117 -102 -147 -149 -230 -360 -348 -890 l-18 -84 -42
66 c-381 603 -607 1238 -694 1947 -19 160 -22 233 -22 545 0 308 3 386 21 536
72 583 219 1075 468 1568 217 429 487 807 825 1155 793 816 1869 1315 3010
1395 169 12 476 12 630 1z"/>
<path d="M5034 9231 c-82 -13 -122 -30 -151 -65 -26 -30 -39 -35 -153 -60
-262 -57 -552 -175 -775 -315 -356 -224 -620 -526 -691 -791 -25 -94 -23 -269
5 -378 25 -99 72 -193 115 -229 83 -70 231 -107 496 -124 187 -11 321 -7 518
17 68 9 126 13 129 11 4 -5 -195 -55 -330 -82 -99 -20 -294 -45 -367 -46 l-55
-1 45 -15 c61 -21 307 -29 396 -14 38 7 139 29 224 51 337 84 522 107 765 96
190 -9 320 -29 510 -78 254 -65 328 -77 460 -78 124 0 339 32 250 37 -126 8
-273 26 -365 43 -130 25 -339 78 -360 91 -12 8 -11 9 5 5 81 -21 312 -39 495
-38 387 2 607 56 688 169 79 111 114 349 77 525 -29 137 -135 316 -275 464
-201 212 -401 358 -673 489 -178 86 -346 144 -507 175 -134 26 -144 30 -148
57 -2 12 -11 28 -20 36 -42 37 -209 63 -308 48z"/>
<path d="M4895 7159 c-130 -13 -242 -35 -390 -75 -71 -20 -168 -42 -215 -50
-101 -17 -283 -18 -366 -3 -88 15 -221 57 -286 90 -32 16 -59 29 -62 29 -2 0
11 -35 30 -77 l33 -78 -46 -15 c-78 -25 -88 -48 -87 -203 0 -73 6 -159 13
-192 26 -126 105 -375 135 -431 38 -69 109 -124 160 -124 l32 0 19 -97 c47
-254 113 -419 250 -623 l77 -115 -5 -150 c-5 -144 -7 -156 -47 -275 -38 -112
-42 -132 -38 -196 10 -159 153 -363 325 -468 172 -103 412 -156 712 -156 405
0 622 72 827 275 182 180 223 323 154 537 -34 106 -48 205 -51 350 l-1 93 61
95 c128 196 185 337 241 598 l26 124 53 18 c95 32 150 107 195 265 14 50 32
110 41 135 49 139 82 435 55 504 -11 30 -57 56 -100 56 -36 0 -37 4 -5 82 14
34 23 63 21 65 -2 3 -27 -7 -56 -22 -152 -77 -321 -110 -518 -102 -139 6 -212
19 -422 75 -63 16 -164 38 -225 47 -132 20 -415 27 -540 14z"/>
</g>
</svg>
