<?xml version="1.0" standalone="no"?>
<!DOCTYPE svg PUBLIC "-//W3C//DTD SVG 20010904//EN"
 "http://www.w3.org/TR/2001/REC-SVG-20010904/DTD/svg10.dtd">
<svg version="1.0" xmlns="http://www.w3.org/2000/svg"
 width="2048.000000pt" height="2048.000000pt" viewBox="0 0 2048.000000 2048.000000"
 preserveAspectRatio="xMidYMid meet">

<g transform="translate(0.000000,2048.000000) scale(0.100000,-0.100000)"
fill="***REMOVED***000000" stroke="none">
<path d="M9930 20144 c-36 -2 -150 -8 -255 -14 -757 -42 -1419 -151 -2115
-346 -1342 -377 -2583 -1029 -3666 -1925 -604 -501 -1208 -1131 -1621 -1689
-403 -546 -659 -960 -933 -1510 -293 -587 -468 -1027 -656 -1654 -189 -630
-299 -1214 -368 -1956 -29 -306 -39 -593 -33 -967 6 -424 31 -735 98 -1231
135 -1006 464 -2071 930 -3012 763 -1542 1909 -2857 3339 -3832 1161 -791
2454 -1333 3780 -1582 973 -183 1989 -220 2930 -106 1242 151 2344 494 3459
1078 876 459 1684 1047 2394 1742 973 951 1720 2053 2244 3310 156 376 343
940 442 1335 218 875 322 1753 308 2590 -12 695 -99 1391 -267 2120 -218 953
-680 2068 -1198 2895 -339 541 -566 850 -981 1333 -290 337 -780 814 -1191
1157 -310 259 -840 633 -1215 857 -757 454 -1624 825 -2457 1054 -688 188
-1318 292 -2063 339 -166 11 -791 20 -905 14z m910 -204 c648 -40 1148 -117
1760 -270 1303 -326 2487 -898 3590 -1735 422 -321 977 -833 1321 -1220 605
-680 1080 -1378 1467 -2155 526 -1054 844 -2122 971 -3260 49 -429 56 -566 56
-1070 0 -517 -8 -665 -61 -1125 -34 -300 -55 -435 -119 -750 -205 -1017 -522
-1894 -1004 -2775 -753 -1374 -1774 -2500 -3094 -3409 -752 -518 -1649 -962
-2532 -1253 -425 -140 -1054 -290 -1473 -352 -486 -72 -860 -104 -1317 -113
-1211 -22 -2375 179 -3521 610 -927 348 -1850 866 -2635 1478 -911 710 -1698
1584 -2299 2553 -219 354 -478 842 -634 1196 -333 754 -574 1564 -716 2408
-97 578 -144 1281 -121 1823 25 615 77 1056 187 1609 87 439 173 758 319 1190
329 970 751 1776 1399 2670 454 627 1139 1335 1791 1852 783 621 1707 1145
2618 1487 1037 389 1985 578 3137 625 144 6 736 -3 910 -14z"/>
<path d="M11265 16870 c-639 -28 -1348 -116 -1607 -201 -216 -70 -340 -168
-493 -388 -182 -263 -425 -733 -499 -967 -34 -105 -62 -173 -97 -230 -73 -121
-98 -182 -119 -292 -20 -102 -31 -304 -17 -311 4 -2 88 0 186 4 l179 7 6 137
c7 176 23 321 37 338 6 7 22 13 36 13 19 0 23 -4 19 -17 -13 -43 -27 -199 -29
-326 l-2 -139 376 2 c338 1 861 -12 1011 -25 l57 -5 6 48 c11 86 27 157 37
170 6 6 21 12 34 12 29 0 29 -7 9 -113 -23 -122 -29 -114 78 -122 85 -6 97 -5
128 14 57 35 148 25 214 -24 24 -18 54 -25 150 -34 218 -23 735 -101 899 -136
210 -45 477 -117 561 -150 37 -15 69 -24 73 -20 4 3 18 45 32 93 24 85 26 87
58 90 17 2 32 -1 32 -6 0 -5 -11 -54 -25 -108 -14 -54 -25 -100 -25 -101 0 -2
35 -20 78 -42 55 -27 83 -36 97 -30 29 11 104 11 147 -1 47 -14 82 -55 73 -90
-3 -14 -7 -30 -8 -37 -1 -6 52 -48 118 -92 66 -45 165 -116 220 -159 l100 -78
365 -73 c440 -89 458 -94 466 -126 7 -30 -1 -45 -27 -45 -10 0 -157 27 -325
60 -168 33 -312 60 -320 60 -8 0 68 -74 168 -163 101 -90 262 -240 358 -334
l175 -171 170 -16 c258 -25 274 -26 504 -36 334 -15 952 10 1506 60 963 88
1529 154 1702 199 78 20 83 18 83 -33 0 -39 -99 -62 -520 -120 -352 -49 -544
-68 -1345 -136 -588 -50 -1316 -64 -1762 -35 -130 9 -238 14 -241 11 -2 -3 60
-71 139 -151 l144 -146 158 -80 c154 -78 274 -147 388 -223 l55 -36 223 12
c235 13 253 11 259 -30 5 -32 -24 -40 -198 -52 -85 -6 -156 -13 -158 -15 -2
-1 25 -25 60 -51 261 -200 446 -363 588 -518 l53 -58 86 6 c266 21 1125 140
1426 197 460 87 538 123 611 282 72 159 152 698 142 962 -4 109 -6 114 -108
415 -165 487 -210 588 -351 776 -127 170 -363 397 -594 571 -134 101 -437 297
-531 343 -192 94 -193 95 -606 535 -496 530 -965 910 -1335 1081 -413 192
-1184 325 -2218 384 -246 14 -1075 20 -1320 10z m2975 -450 c278 -11 407 -28
506 -65 127 -48 471 -291 716 -508 146 -128 359 -334 512 -495 176 -185 448
-499 438 -506 -24 -14 -802 -129 -1092 -160 -302 -33 -508 -41 -1071 -41
l-567 0 81 -55 c261 -178 630 -475 822 -661 59 -57 62 -59 95 -49 108 31 293
-17 438 -114 149 -99 253 -228 297 -368 32 -102 33 -176 1 -243 -44 -95 -119
-138 -241 -138 -181 -1 -356 89 -524 268 -155 167 -196 380 -96 510 l24 32
-117 106 c-228 206 -586 491 -830 661 -81 56 -87 58 -185 71 -239 32 -370 107
-482 275 -24 36 -129 230 -233 430 -234 453 -322 600 -489 814 -29 37 -53 72
-53 76 0 11 64 24 275 54 431 63 684 82 1435 109 41 2 80 4 85 5 6 1 120 -3
255 -8z m-3832 -73 c84 -2 157 -8 163 -14 7 -7 -3 -54 -31 -143 -54 -178 -153
-581 -185 -752 -13 -75 -37 -226 -51 -335 -15 -109 -29 -200 -30 -202 -5 -5
-401 68 -752 139 -161 33 -295 60 -298 60 -12 0 1 112 41 350 51 303 59 341
87 430 69 220 236 392 435 446 56 15 312 32 418 27 28 -2 119 -4 203 -6z m729
-62 c298 -52 421 -87 563 -161 216 -111 353 -279 559 -683 144 -283 191 -409
212 -566 13 -102 6 -362 -10 -378 -14 -14 -105 1 -325 53 -179 42 -210 54
-202 76 3 7 12 63 21 123 25 169 -3 267 -93 328 -65 43 -199 54 -344 29 -198
-36 -305 -138 -316 -302 l-4 -70 -237 48 c-130 26 -247 53 -260 58 -23 11 -23
13 -17 103 13 173 36 402 66 642 52 413 103 668 142 707 25 25 73 23 245 -7z
m-1980 -1534 c76 -35 98 -127 44 -182 -25 -25 -37 -29 -81 -29 -46 0 -56 4
-85 33 -39 39 -50 72 -41 122 13 69 81 93 163 56z m8488 -752 c24 -11 65 -39
89 -61 47 -41 135 -166 179 -254 84 -168 109 -391 47 -424 -56 -30 -147 7
-256 104 l-66 59 -39 -13 c-48 -16 -109 -67 -148 -123 -42 -62 -81 -98 -126
-118 -44 -19 -239 -39 -825 -84 -407 -32 -414 -31 -609 69 -150 76 -186 87
-311 95 -81 5 -95 9 -98 24 -2 10 2 25 9 34 12 13 29 15 108 9 138 -10 171
-19 336 -99 184 -89 182 -88 575 -53 157 14 388 33 513 41 136 9 242 21 262
29 17 8 50 35 71 62 84 103 119 135 175 162 l58 28 -31 49 c-83 133 -135 283
-122 354 21 117 103 160 209 110z m103 -789 c66 -40 92 -163 41 -190 -31 -17
-88 16 -126 74 -37 54 -41 81 -17 114 19 28 58 29 102 2z m-2057 -156 c14 -7
40 -29 58 -49 35 -40 40 -79 16 -125 -14 -27 -20 -30 -66 -30 -46 0 -55 4 -89
38 -67 66 -71 148 -10 179 26 13 46 10 91 -13z m2418 -788 c57 -45 52 -185 -9
-258 -36 -43 -96 -46 -136 -7 -47 47 -54 155 -15 223 30 53 117 76 160 42z
m-389 -77 c0 -60 -108 -319 -158 -379 -62 -74 -96 -84 -447 -134 -520 -75
-938 -110 -1025 -86 -68 18 -117 54 -144 108 -49 97 -96 282 -79 309 7 10 212
34 893 104 107 10 335 35 505 54 171 19 330 36 355 38 103 8 100 8 100 -14z"/>
<path d="M8715 14313 c-533 -21 -1275 -95 -1610 -159 -331 -64 -556 -163 -691
-306 -105 -110 -245 -327 -454 -703 -158 -283 -237 -464 -300 -681 -11 -39
-44 -111 -74 -161 -118 -195 -155 -338 -170 -660 -5 -102 -4 -113 12 -113 39
0 379 21 398 25 21 5 21 10 22 223 1 212 11 332 32 386 7 20 16 26 40 26 35 0
35 -2 14 -110 -8 -44 -17 -168 -21 -298 l-6 -223 149 8 c182 10 1281 9 1381
-1 l72 -7 6 38 c21 141 45 247 61 264 21 24 64 26 64 2 0 -9 -9 -64 -19 -122
-32 -177 -33 -178 -8 -185 12 -3 56 -6 97 -6 l75 1 20 42 c27 58 71 79 151 75
71 -4 133 -38 164 -91 10 -18 23 -37 28 -43 5 -6 77 -16 158 -23 191 -16 550
-56 729 -82 280 -40 706 -125 848 -169 34 -11 63 -17 65 -15 2 2 14 44 27 94
26 103 37 121 72 121 36 0 38 -23 13 -118 -12 -48 -24 -96 -27 -107 -4 -17 9
-25 93 -54 54 -19 103 -34 108 -33 59 5 131 2 160 -8 42 -13 76 -53 76 -86 0
-19 12 -30 58 -53 111 -56 391 -249 582 -402 31 -25 64 -33 310 -79 291 -54
419 -83 451 -103 24 -15 26 -65 3 -74 -9 -3 -44 -1 -78 6 -191 36 -459 82
-462 78 -2 -2 47 -48 109 -103 193 -171 357 -322 518 -481 86 -84 160 -153
165 -153 5 0 90 -7 189 -15 641 -53 971 -42 2340 76 965 82 1568 156 1708 209
l47 18 6 -25 c11 -41 -10 -69 -63 -87 -238 -78 -1072 -171 -2683 -298 -202
-16 -1153 -17 -1315 -1 -60 6 -111 9 -113 8 -8 -7 315 -327 358 -355 27 -17
86 -47 132 -66 127 -54 233 -110 340 -180 152 -98 131 -93 306 -82 135 9 155
8 177 -6 27 -18 34 -59 13 -73 -7 -4 -62 -10 -123 -13 l-110 -5 58 -34 c132
-76 480 -359 683 -554 l131 -126 284 34 c156 19 376 48 489 65 113 17 309 46
435 65 377 57 660 122 780 180 194 93 253 270 330 987 29 277 30 329 9 412 -8
33 -72 233 -140 443 -133 405 -180 515 -299 698 -89 138 -138 199 -275 339
-160 165 -292 278 -510 440 -224 167 -325 230 -548 346 -100 52 -211 116 -246
142 -36 27 -142 131 -235 231 -163 176 -481 493 -646 648 -94 87 -403 347
-525 441 -286 220 -614 387 -935 478 -519 145 -1304 245 -2205 280 -225 9
-1068 11 -1255 3z m3230 -472 c307 -15 487 -47 608 -108 153 -76 512 -343 786
-583 320 -280 842 -813 1019 -1042 12 -15 8 -18 -40 -33 -64 -20 -639 -106
-931 -140 -511 -59 -848 -76 -1563 -78 -493 -2 -539 -3 -520 -18 12 -8 84 -60
161 -114 296 -209 672 -520 849 -703 45 -47 50 -49 80 -40 50 15 185 12 253
-5 187 -48 402 -208 520 -384 71 -107 103 -196 103 -288 0 -136 -42 -215 -142
-264 -151 -74 -356 -43 -545 82 -199 133 -317 283 -363 463 -33 128 -25 195
35 283 l34 51 -92 84 c-183 167 -409 355 -678 562 -349 269 -401 304 -444 304
-54 0 -243 39 -310 65 -120 45 -209 117 -276 222 -22 36 -98 178 -168 316
-312 615 -471 883 -668 1125 -23 30 -43 60 -43 66 0 22 696 109 1115 140 197
14 607 34 810 39 50 1 115 3 145 5 30 1 150 -2 265 -7z m-4125 -117 c9 -9 4
-34 -18 -100 -111 -325 -249 -941 -307 -1369 -9 -66 -18 -125 -20 -131 -2 -8
-32 -6 -102 7 -54 11 -224 42 -378 69 -478 87 -660 122 -672 132 -6 5 -10 24
-7 41 60 448 112 741 152 857 79 229 278 421 494 476 106 28 185 32 520 31
229 -2 330 -5 338 -13z m561 -33 c503 -68 788 -185 963 -397 126 -152 288
-426 417 -705 136 -294 169 -421 169 -658 0 -133 -11 -256 -25 -269 -5 -5
-274 47 -452 88 -51 12 -103 30 -115 40 l-22 17 23 103 c39 171 20 312 -54
385 -55 55 -120 75 -245 75 -201 0 -350 -45 -439 -132 -67 -66 -86 -115 -86
-224 0 -57 -4 -90 -10 -88 -5 2 -109 24 -230 49 -241 51 -333 74 -340 85 -13
22 49 610 105 995 59 397 96 572 136 632 18 28 24 28 205 4z m-2131 -1760 c19
-10 46 -33 58 -52 46 -66 9 -168 -69 -189 -144 -39 -258 141 -148 234 38 32
107 35 159 7z m9496 -792 c108 -41 251 -204 335 -384 53 -113 80 -221 82 -327
2 -74 -1 -91 -19 -115 -49 -65 -168 -29 -301 91 l-73 65 -39 -14 c-86 -30
-127 -64 -189 -156 -42 -63 -103 -116 -149 -128 -21 -6 -85 -15 -143 -21 -223
-22 -686 -60 -915 -76 -322 -23 -346 -20 -558 82 -163 78 -217 94 -382 111
-66 8 -70 10 -73 34 -4 34 13 39 141 39 118 0 200 -24 341 -100 133 -71 198
-90 306 -90 150 0 1126 80 1227 101 66 13 93 35 149 120 55 83 97 121 160 144
27 10 52 21 57 25 4 3 -17 47 -46 96 -151 250 -163 446 -32 505 51 23 53 23
121 -2z m123 -908 c102 -73 125 -221 35 -221 -84 0 -171 124 -144 204 6 19 16
37 23 40 18 8 59 -3 86 -23z m-2290 -200 c39 -28 71 -89 71 -136 0 -43 -45
-95 -81 -95 -67 0 -161 83 -175 155 -6 34 15 88 38 99 29 13 115 -1 147 -23z
m2714 -871 c50 -40 57 -173 13 -259 -22 -42 -73 -81 -106 -81 -93 0 -152 164
-100 278 32 71 138 105 193 62z m-443 -77 c0 -37 -82 -267 -125 -354 -38 -76
-90 -136 -137 -160 -110 -56 -1138 -189 -1464 -189 -198 0 -233 17 -297 145
-35 70 -77 207 -84 276 -5 55 -4 59 18 68 13 6 209 29 434 51 485 49 1457 155
1535 168 92 16 120 14 120 -5z"/>
<path d="M17580 11425 c-129 -24 -390 -66 -579 -94 -190 -28 -346 -53 -349
-55 -17 -18 103 -131 191 -180 112 -62 194 -81 347 -80 159 0 237 17 355 74
44 21 102 57 128 80 76 68 154 186 182 278 8 29 11 29 -275 -23z"/>
<path d="M6295 11394 c-1191 -39 -2112 -147 -2515 -295 -98 -36 -230 -112
-290 -167 -120 -108 -256 -299 -445 -622 -59 -102 -131 -225 -160 -275 -124
-212 -240 -467 -329 -724 -22 -62 -59 -140 -90 -190 -71 -113 -89 -151 -119
-246 -56 -180 -71 -386 -56 -785 13 -377 8 -442 -49 -566 -76 -166 -97 -304
-89 -574 8 -261 51 -539 97 -630 18 -34 18 -35 23 -10 3 14 15 93 26 175 30
215 64 354 111 450 45 94 120 182 189 223 40 23 57 27 126 27 69 0 89 -4 148
-32 37 -18 92 -56 123 -85 63 -60 176 -223 233 -337 83 -165 231 -591 311
-891 50 -190 74 -242 145 -309 92 -87 181 -116 409 -131 82 -5 190 -17 240
-25 99 -17 718 -162 961 -225 83 -22 344 -85 580 -140 237 -56 603 -143 815
-195 212 -51 450 -108 529 -125 80 -18 169 -41 199 -51 l55 -19 -7 53 c-3 28
-11 127 -17 219 -23 339 35 877 123 1133 147 430 433 634 746 529 147 -49 260
-122 404 -262 l86 -84 67 41 c106 64 152 75 290 74 66 -1 206 -10 310 -22 755
-82 1261 -95 2015 -50 503 29 1835 146 2510 220 192 21 400 56 532 89 126 33
156 24 124 -38 -20 -38 -64 -55 -219 -87 -242 -48 -540 -84 -1412 -169 -590
-58 -793 -74 -1480 -121 -698 -47 -1310 -34 -2105 46 -122 13 -246 19 -305 17
-92 -4 -106 -7 -172 -41 -40 -21 -73 -40 -73 -43 0 -4 20 -37 45 -75 103 -157
211 -389 283 -609 47 -143 80 -271 163 -633 77 -340 99 -386 209 -442 116 -58
352 -81 755 -72 759 18 2553 220 3553 402 167 30 330 62 364 70 248 65 335
164 412 472 32 127 61 317 81 523 8 91 23 219 31 285 33 257 18 383 -76 620
-26 66 -82 225 -124 354 -43 128 -100 286 -127 350 -196 458 -604 873 -1359
1379 -81 55 -215 128 -378 209 l-253 124 -327 331 c-887 896 -1525 1401 -1995
1578 -370 139 -995 264 -1617 325 -227 22 -707 53 -1000 64 -271 11 -1067 21
-1235 15z m3309 -504 c223 -13 414 -37 495 -62 275 -85 822 -498 1480 -1118
154 -145 614 -621 696 -720 l37 -44 -28 -8 c-119 -33 -490 -86 -1069 -152
-530 -61 -669 -67 -1576 -75 l-766 -6 171 -122 c278 -199 482 -368 867 -718
l154 -140 60 13 c165 35 415 -41 611 -186 156 -115 297 -312 340 -473 20 -75
22 -187 5 -246 -27 -98 -129 -182 -245 -202 -186 -32 -344 11 -558 156 -265
177 -398 383 -398 614 0 93 12 135 55 199 19 29 35 56 35 61 0 15 -517 463
-744 645 -55 44 -202 155 -325 246 l-224 166 -103 11 c-303 34 -480 128 -603
321 -28 43 -133 238 -232 432 -100 194 -220 423 -266 508 -100 182 -299 485
-407 620 -58 71 -73 96 -62 102 34 19 668 95 1026 123 718 55 1250 74 1574 55z
m-4618 -133 c9 -9 5 -26 -59 -227 -112 -358 -232 -883 -316 -1383 -17 -98 -32
-181 -35 -185 -4 -6 -1151 179 -1254 202 -24 6 -32 12 -28 24 2 10 7 44 11 77
3 33 26 177 51 320 111 647 142 735 323 916 186 186 302 232 666 263 79 6 634
1 641 -7z m697 -47 c461 -73 697 -148 864 -274 77 -58 187 -177 252 -271 121
-175 390 -695 464 -895 58 -157 72 -246 70 -475 0 -137 -5 -217 -15 -255 l-14
-55 -38 3 c-91 7 -588 110 -602 124 -14 14 -13 23 8 89 19 62 23 94 22 204 0
111 -4 139 -23 188 -32 80 -75 121 -158 148 -152 48 -456 6 -595 -82 -135 -87
-200 -226 -165 -356 14 -51 13 -53 -6 -53 -12 0 -145 27 -296 61 -152 33 -292
64 -311 68 l-35 7 2 95 c4 188 101 961 159 1269 29 152 87 399 104 445 6 16
17 33 23 37 22 14 101 8 290 -22z m-2806 -1716 c3 -8 -2 -52 -11 -97 -43 -218
-45 -530 -6 -862 24 -204 50 -334 79 -401 11 -25 63 -98 115 -162 255 -316
385 -564 597 -1137 62 -168 89 -223 140 -292 57 -77 100 -97 279 -132 180 -35
547 -112 638 -134 34 -8 62 -13 62 -11 0 2 -13 91 -30 197 -34 224 -45 330
-60 562 -6 94 -19 256 -30 360 -24 234 -37 453 -46 783 -4 174 -10 255 -18
258 -20 7 -796 153 -1194 224 -217 39 -403 75 -413 81 -24 12 -24 41 -1 62 16
14 43 11 337 -38 396 -67 772 -133 1060 -184 121 -22 221 -38 222 -37 2 1 10
88 18 192 25 318 60 467 111 480 46 12 49 -5 26 -138 -31 -174 -42 -284 -42
-430 l0 -126 48 -10 c26 -6 175 -34 332 -62 519 -93 1038 -189 1607 -297 310
-59 565 -104 569 -101 3 4 12 64 20 135 14 131 49 319 84 452 25 100 65 153
104 138 23 -9 20 -51 -9 -168 -34 -135 -85 -433 -88 -515 l-2 -68 550 -108
c303 -60 750 -147 995 -194 554 -106 560 -107 582 -134 23 -28 23 -35 -3 -61
-15 -15 -30 -20 -52 -17 -46 7 -1125 214 -1633 313 -238 47 -436 85 -442 85
-28 0 -53 -462 -59 -1090 -5 -509 -4 -533 21 -810 17 -181 23 -296 18 -315
-19 -67 -65 -67 -357 0 -104 25 -305 69 -445 99 -140 30 -433 94 -650 141
-217 47 -602 130 -855 185 -253 54 -550 120 -660 145 -110 25 -260 57 -334 71
-163 30 -225 58 -302 135 -72 72 -112 154 -208 426 -81 229 -115 312 -195 471
-112 223 -204 365 -369 568 -100 123 -128 176 -157 287 -19 78 -53 399 -65
632 -9 172 24 559 55 641 11 28 57 34 67 8z m360 -280 c73 -59 81 -154 20
-220 -73 -80 -210 -51 -253 53 -17 39 -18 116 -3 144 35 67 166 79 236 23z
m1933 -264 c110 -30 173 -114 151 -198 -29 -105 -161 -152 -277 -98 -28 13
-60 37 -72 53 -26 37 -41 98 -34 142 5 38 59 97 94 104 43 8 103 7 138 -3z
m2702 -559 c91 -34 88 -157 -5 -182 -49 -13 -144 -1 -202 27 -64 30 -82 107
-34 150 35 31 165 34 241 5z m6040 -12 c126 -63 260 -218 349 -404 81 -170
125 -378 100 -472 -37 -136 -197 -101 -388 84 -50 50 -52 51 -95 43 -23 -5
-55 -13 -70 -19 -39 -15 -114 -86 -158 -151 -74 -107 -125 -150 -197 -163 -18
-4 -171 -18 -340 -32 -170 -14 -450 -37 -623 -51 -223 -19 -355 -25 -455 -21
-164 5 -189 12 -400 117 -154 76 -221 96 -367 106 -84 6 -98 10 -104 26 -8 25
19 54 55 61 39 8 215 -10 281 -29 30 -8 129 -52 219 -97 l164 -82 206 2 c125
0 326 11 511 27 168 15 393 33 500 41 300 23 349 31 394 63 22 15 61 59 88 99
62 93 123 145 202 175 l65 23 -55 85 c-109 170 -167 380 -132 481 38 113 133
147 250 88z m137 -1017 c50 -41 81 -98 81 -152 0 -73 -8 -90 -42 -90 -88 0
-198 119 -198 214 0 9 12 28 26 43 21 21 32 24 61 20 20 -4 53 -19 72 -35z
m-2646 -188 c41 -21 85 -62 103 -96 23 -44 18 -112 -10 -145 -34 -39 -105 -40
-164 -1 -88 58 -124 186 -67 235 32 28 91 31 138 7z m3107 -1013 c32 -23 49
-71 49 -142 2 -135 -70 -249 -157 -249 -101 0 -165 202 -102 325 44 87 139
117 210 66z m-507 -113 c-3 -49 -133 -378 -178 -450 -45 -71 -107 -112 -211
-138 -155 -39 -1057 -153 -1424 -181 -402 -30 -460 3 -555 317 -43 141 -48
196 -20 223 24 24 62 29 538 76 363 36 1699 182 1727 189 8 2 40 3 70 3 l55
-2 -2 -37z m-2603 -208 c17 -17 18 -24 10 -41 -6 -11 -22 -24 -36 -29 -13 -5
-148 -19 -299 -32 l-276 -22 8 -45 c24 -139 -9 -253 -86 -302 -178 -113 -333
147 -204 342 33 50 91 87 166 105 75 18 381 41 565 43 120 1 134 -1 152 -19z"/>
<path d="M4710 7713 c0 -167 20 -649 35 -823 3 -36 10 -150 15 -255 15 -285
28 -399 71 -633 21 -118 39 -223 39 -233 0 -27 13 -31 281 -84 129 -25 362
-75 519 -111 480 -108 1583 -345 1587 -340 2 1 -4 85 -12 187 -45 556 -45
1235 0 1804 10 126 11 191 5 195 -6 4 -90 21 -188 38 -156 29 -490 93 -1547
297 -154 30 -347 66 -430 80 -82 14 -196 35 -253 46 -57 10 -107 19 -113 19
-5 0 -9 -76 -9 -187z"/>
<path d="M15969 8246 c-16 -16 -706 -131 -1216 -202 -79 -11 -123 -21 -123
-29 0 -67 217 -225 371 -269 192 -56 466 -28 652 65 132 67 253 190 316 322
41 86 47 117 23 117 -10 0 -21 -2 -23 -4z"/>
<path d="M2692 6929 c-123 -61 -247 -230 -311 -424 -130 -396 -93 -1032 81
-1380 79 -157 207 -300 324 -362 105 -56 172 -66 385 -59 190 6 296 24 371 62
109 55 216 169 290 311 39 74 88 204 88 233 0 4 -31 15 -70 24 -228 51 -338
198 -444 595 -120 443 -267 803 -387 944 -58 67 -101 87 -192 87 -62 0 -83 -5
-135 -31z m215 -400 c60 -29 135 -118 184 -217 73 -151 128 -426 114 -582 -21
-246 -86 -432 -186 -525 -209 -196 -466 105 -509 596 -40 458 168 839 397 728z"/>
<path d="M8325 6215 c-253 -41 -400 -133 -532 -332 -98 -149 -167 -331 -205
-542 -43 -245 -34 -657 22 -914 58 -267 190 -531 347 -693 181 -187 339 -260
588 -271 237 -11 580 67 735 165 149 94 308 306 369 489 31 94 30 97 -41 123
-153 55 -224 128 -279 288 -10 29 -39 150 -64 270 -59 275 -90 389 -171 632
-62 187 -160 408 -227 515 -43 70 -148 203 -191 245 l-37 35 -112 2 c-62 1
-152 -4 -202 -12z m24 -494 c193 -60 345 -295 423 -653 30 -140 33 -449 5
-576 -41 -185 -100 -310 -192 -410 -74 -80 -139 -114 -232 -120 -67 -4 -79 -2
-137 27 -176 87 -312 325 -373 656 -24 126 -23 399 0 518 21 105 67 240 110
322 59 110 185 225 270 245 50 12 61 11 126 -9z"/>
<path d="M14050 4609 c-160 -37 -746 -134 -1142 -190 -170 -24 -308 -47 -308
-51 0 -5 44 -52 98 -107 109 -110 178 -154 309 -195 164 -51 368 -53 581 -7
220 48 378 157 512 356 34 50 100 189 100 213 0 16 -2 15 -150 -19z"/>
</g>
</svg>
