<?xml version="1.0" standalone="no"?>
<!DOCTYPE svg PUBLIC "-//W3C//DTD SVG 20010904//EN"
 "http://www.w3.org/TR/2001/REC-SVG-20010904/DTD/svg10.dtd">
<svg version="1.0" xmlns="http://www.w3.org/2000/svg"
 width="2048.000000pt" height="2048.000000pt" viewBox="0 0 2048.000000 2048.000000"
 preserveAspectRatio="xMidYMid meet">

<g transform="translate(0.000000,2048.000000) scale(0.100000,-0.100000)"
fill="***REMOVED***000000" stroke="none">
<path d="M9815 20469 c-1122 -47 -2150 -258 -3200 -654 -931 -351 -1762 -814
-2595 -1443 -561 -424 -1172 -1010 -1652 -1584 -676 -807 -1261 -1797 -1655
-2797 -264 -672 -463 -1401 -587 -2156 -95 -576 -143 -1387 -117 -1975 40
-893 163 -1651 407 -2503 368 -1284 1032 -2539 1914 -3617 651 -795 1406
-1475 2270 -2042 992 -652 2037 -1112 3167 -1393 308 -76 780 -168 1053 -204
837 -111 1688 -123 2540 -35 885 91 1750 303 2595 634 337 132 491 200 810
358 309 153 379 191 645 346 1111 646 2117 1525 2897 2532 440 567 795 1130
1102 1744 300 602 524 1189 700 1835 353 1292 450 2559 300 3910 -49 441 -160
1025 -280 1465 -192 706 -422 1308 -740 1940 -719 1431 -1720 2633 -2980 3580
-880 661 -1796 1150 -2825 1508 -1198 417 -2490 606 -3769 551z m1075 -494
c536 -39 922 -92 1390 -191 1430 -304 2815 -952 3971 -1860 1264 -992 2235
-2235 2901 -3714 393 -872 673 -1892 778 -2835 147 -1321 47 -2568 -304 -3803
-131 -461 -311 -951 -491 -1342 -37 -80 -81 -174 -97 -210 -98 -211 -356 -682
-511 -930 -670 -1077 -1560 -2035 -2542 -2737 -1058 -756 -2130 -1260 -3340
-1568 -542 -138 -1007 -215 -1595 -265 -1319 -111 -2624 43 -3865 456 -303
100 -605 216 -855 326 -1339 592 -2495 1439 -3443 2522 -1051 1201 -1823 2726
-2167 4283 -110 499 -173 934 -216 1483 -20 261 -23 944 -5 1215 33 487 86
902 171 1325 221 1101 565 2016 1125 2990 435 757 913 1379 1550 2016 284 284
494 475 762 691 1503 1212 3321 1953 5223 2127 157 14 430 32 605 40 170 7
750 -4 955 -19z"/>
<path d="M9354 17055 c-195 -42 -345 -200 -388 -406 -8 -41 -34 -225 -56 -409
-23 -184 -54 -442 -70 -572 -24 -196 -34 -246 -54 -287 -32 -62 -94 -116 -160
-137 -237 -77 -462 -168 -711 -287 -139 -67 -155 -72 -215 -72 -44 1 -76 7
-100 19 -19 11 -132 96 -250 191 -613 489 -769 610 -817 632 -166 76 -373 62
-518 -35 -31 -21 -316 -298 -636 -618 -563 -562 -581 -581 -620 -659 -83 -170
-71 -373 31 -519 22 -32 186 -241 363 -464 419 -528 433 -546 447 -598 7 -24
10 -63 7 -85 -3 -23 -48 -130 -101 -238 -103 -212 -144 -311 -231 -557 -100
-283 -72 -267 -616 -334 -823 -101 -863 -108 -967 -155 -69 -32 -172 -131
-210 -203 -69 -130 -67 -95 -67 -1027 0 -787 1 -844 18 -900 52 -168 167 -292
319 -344 93 -32 212 -48 1058 -146 265 -30 314 -42 356 -87 42 -44 46 -52 110
-240 69 -201 131 -351 242 -581 92 -193 105 -245 80 -307 -8 -19 -138 -190
-289 -380 -578 -726 -536 -671 -570 -758 -28 -71 -37 -227 -19 -312 28 -133
37 -143 676 -783 414 -414 609 -602 648 -626 151 -91 358 -95 515 -11 50 27
221 162 841 662 100 80 198 155 218 165 75 36 119 26 328 -74 224 -109 308
-144 545 -228 98 -35 191 -71 208 -79 41 -22 77 -68 95 -123 8 -26 47 -304 86
-618 40 -313 78 -600 86 -637 38 -186 159 -332 323 -390 l66 -23 851 -3 c922
-3 930 -3 1047 51 76 35 168 124 210 204 59 114 63 139 162 972 25 212 48 396
52 410 12 50 53 119 82 141 17 11 104 47 193 79 291 105 457 175 663 280 94
48 118 56 165 56 40 0 66 -7 95 -24 22 -13 161 -121 308 -240 761 -613 731
-591 845 -622 81 -23 197 -24 277 -4 138 36 136 35 772 669 342 342 604 612
623 641 101 163 98 409 -9 568 -20 30 -200 260 -401 511 -201 251 -378 480
-393 509 -43 78 -36 117 61 317 106 220 159 344 233 551 34 96 66 187 72 203
15 42 54 84 97 106 48 24 71 28 645 95 586 69 687 86 771 126 127 60 226 179
271 324 17 56 18 113 18 910 l0 850 -28 79 c-49 139 -123 228 -237 286 -100
50 -110 52 -890 149 -261 33 -495 67 -520 76 -86 30 -117 75 -182 264 -73 212
-119 324 -226 545 -89 184 -106 227 -109 275 -6 89 -47 31 559 793 147 185
280 359 294 388 53 105 63 252 28 380 -37 130 -42 136 -663 759 -543 545 -591
591 -658 625 -96 49 -196 70 -293 61 -81 -7 -175 -35 -230 -68 -35 -20 -295
-225 -755 -593 -132 -105 -256 -200 -275 -210 -23 -12 -57 -18 -100 -19 -61 0
-75 5 -240 84 -196 94 -421 186 -613 251 -99 33 -138 52 -171 81 -75 66 -79
84 -146 626 -80 640 -94 737 -121 808 -62 168 -206 294 -373 324 -93 17 -1682
13 -1762 -4z m1276 -3235 c528 -65 1015 -231 1457 -497 740 -447 1294 -1139
1569 -1958 66 -198 128 -471 160 -710 22 -164 26 -615 6 -780 -85 -709 -336
-1319 -769 -1866 -130 -165 -407 -444 -568 -571 -541 -429 -1145 -684 -1830
-774 -160 -21 -637 -25 -790 -6 -245 30 -503 88 -748 168 -591 193 -1155 568
-1575 1047 -419 477 -698 1038 -826 1659 -51 248 -69 423 -69 698 -1 353 25
560 115 915 230 907 824 1696 1644 2185 486 290 996 452 1584 504 81 7 553 -3
640 -14z"/>
<path d="M9950 13523 c-788 -80 -1489 -411 -2036 -959 -552 -554 -889 -1279
-955 -2053 -16 -191 -6 -541 20 -721 67 -455 210 -860 442 -1246 449 -749
1193 -1294 2052 -1504 296 -73 522 -96 866 -87 275 7 430 27 673 88 550 138
1029 392 1443 766 605 547 993 1330 1066 2153 15 167 6 549 -16 710 -63 462
-229 922 -473 1312 -537 856 -1435 1421 -2436 1533 -119 13 -543 19 -646 8z
m630 -987 c449 -75 805 -238 1146 -524 310 -259 534 -573 680 -949 151 -391
192 -841 113 -1248 -185 -963 -958 -1711 -1934 -1871 -153 -25 -524 -26 -679
-1 -330 53 -661 181 -931 360 -760 505 -1155 1376 -1030 2266 32 228 101 451
206 669 171 358 433 665 768 903 308 218 665 356 1048 404 139 18 481 13 613
-9z"/>
</g>
</svg>
