<?xml version="1.0" standalone="no"?>
<!DOCTYPE svg PUBLIC "-//W3C//DTD SVG 20010904//EN"
 "http://www.w3.org/TR/2001/REC-SVG-20010904/DTD/svg10.dtd">
<svg version="1.0" xmlns="http://www.w3.org/2000/svg"
 width="1024.000000pt" height="1024.000000pt" viewBox="0 0 1024.000000 1024.000000"
 preserveAspectRatio="xMidYMid meet">

<g transform="translate(0.000000,1024.000000) scale(0.100000,-0.100000)"
fill="***REMOVED***000000" stroke="none">
<path d="M4831 9969 c-1587 -91 -3047 -977 -3875 -2353 -332 -551 -570 -1226
-650 -1846 -47 -358 -56 -825 -23 -1130 122 -1119 633 -2162 1458 -2977 261
-257 444 -406 749 -609 950 -635 2085 -900 3240 -758 824 102 1686 466 2355
998 418 331 772 714 1065 1153 494 739 762 1513 821 2378 14 201 6 564 -16
775 -160 1508 -983 2832 -2260 3636 -854 537 -1845 791 -2864 733z m555 -140
c645 -37 1235 -193 1810 -478 858 -424 1546 -1072 2019 -1901 606 -1061 777
-2311 475 -3475 -172 -664 -504 -1301 -974 -1870 -114 -138 -449 -475 -581
-586 -995 -833 -2235 -1223 -3482 -1094 -974 100 -1891 509 -2638 1176 -868
774 -1449 1870 -1580 2979 -65 546 -29 1108 106 1658 128 522 348 1025 654
1492 291 443 738 905 1188 1228 381 273 848 508 1302 655 533 173 1137 250
1701 216z"/>
<path d="M5035 8253 c-39 -21 -37 -19 -510 -453 -510 -467 -582 -533 -995
-910 -184 -168 -499 -456 -700 -640 -201 -184 -456 -417 -566 -518 -217 -197
-238 -225 -237 -310 2 -153 162 -256 298 -193 36 16 278 231 785 696 449 411
1026 937 1493 1363 l519 472 221 -203 c122 -111 327 -299 457 -417 130 -118
382 -348 561 -511 178 -162 405 -369 504 -459 99 -91 257 -234 350 -320 94
-85 240 -218 325 -295 85 -77 195 -178 245 -224 99 -92 149 -120 211 -121 124
0 217 89 218 209 0 34 -7 70 -18 92 -16 35 -265 267 -1046 979 -485 442 -1029
939 -1460 1334 -244 224 -461 416 -482 427 -46 23 -131 25 -173 2z"/>
<path d="M4959 7377 c-80 -72 -325 -296 -545 -497 -219 -201 -626 -572 -904
-825 -278 -253 -574 -522 -657 -599 l-153 -139 0 -1491 c0 -859 4 -1508 10
-1530 10 -45 34 -81 74 -110 27 -21 37 -21 849 -24 l822 -2 0 1091 0 1091 28
24 28 24 609 0 609 0 28 -24 28 -24 3 -1091 2 -1091 805 0 c658 0 812 3 838
14 42 17 84 67 97 115 7 26 9 533 8 1537 l-3 1498 -506 461 c-278 253 -757
690 -1064 970 -308 281 -619 565 -693 633 -74 67 -142 122 -151 122 -9 0 -82
-60 -162 -133z m638 -901 l28 -24 0 -462 0 -462 -24 -19 c-22 -18 -45 -19
-480 -19 l-458 0 -22 24 -23 24 -1 457 -1 458 28 23 27 24 449 0 449 0 28 -24z"/>
<path d="M5510 3332 c-83 -41 -53 -162 40 -162 95 0 121 130 34 166 -40 17
-32 17 -74 -4z"/>
</g>
</svg>
